<svg width="20" height="20" viewBox="0 0 20 20" fill="none" xmlns="http://www.w3.org/2000/svg">
<g clip-path="url(#clip0_5_6)">
<mask id="mask0_5_6" style="mask-type:luminance" maskUnits="userSpaceOnUse" x="0" y="0" width="20" height="20">
<path d="M20 0H0V20H20V0Z" fill="white"/>
</mask>
<g mask="url(#mask0_5_6)">
<path d="M4.43242 12.0861L3.73625 14.6851L1.19176 14.7389C0.431328 13.3284 0 11.7148 0 9.99994C0 8.34169 0.403281 6.77794 1.11813 5.401L3.38398 5.81631L4.37633 8.06806C4.16863 8.67356 4.05543 9.32356 4.05543 9.99994C4.05551 10.7339 4.18847 11.4373 4.43242 12.0861Z" fill="#FBBB00"/>
<path d="M19.8252 8.13168C19.94 8.73662 19.9999 9.36137 19.9999 9.99981C19.9999 10.7157 19.9246 11.4141 19.7812 12.0877C19.2944 14.3801 18.0224 16.3817 16.2604 17.7982L16.2598 17.7976L13.4065 17.6521L13.0027 15.1312C14.1719 14.4454 15.0857 13.3724 15.567 12.0877H10.2197V8.13168H15.645H19.8252Z" fill="#518EF8"/>
<path d="M16.2601 17.7977L16.2607 17.7982C14.547 19.1757 12.37 19.9999 10.0003 19.9999C6.19202 19.9999 2.88104 17.8713 1.19202 14.7389L4.43268 12.0862C5.27718 14.34 7.45138 15.9444 10.0003 15.9444C11.0958 15.9444 12.1223 15.6482 13.003 15.1312L16.2601 17.7977Z" fill="#28B446"/>
<path d="M16.383 2.30219L13.1434 4.95437C12.2319 4.38461 11.1544 4.05547 10.0001 4.05547C7.39344 4.05547 5.1786 5.73347 4.37641 8.06812L1.11871 5.40109C2.78301 2.19231 6.13519 0 10.0001 0C12.4264 0 14.6511 0.864294 16.383 2.30219Z" fill="#F14336"/>
</g>
</g>
<defs>
<clipPath id="clip0_5_6">
<rect width="20" height="20" fill="white"/>
</clipPath>
</defs>
</svg>
