<svg width="16" height="16" viewBox="0 0 16 16" fill="none" xmlns="http://www.w3.org/2000/svg">
<path d="M7.33328 12.6667V13.3333C7.33328 13.5101 7.26306 13.6797 7.13802 13.8047C7.01299 13.9298 6.84345 14 6.66662 14H5.3333V14.6667C5.3333 15.0203 5.19283 15.3595 4.94278 15.6095C4.69274 15.8596 4.3536 16 3.99998 16H1.33332C0.979705 16 0.64057 15.8596 0.390522 15.6095C0.140475 15.3595 0 15.0203 0 14.6667V12.9427C7.5516e-05 12.5891 0.1406 12.25 0.390664 12L5.55064 6.83999C5.23425 5.76566 5.2641 4.61896 5.63595 3.56253C6.00783 2.50609 6.70282 1.59353 7.62241 0.954235C8.542 0.314943 9.63948 -0.0186341 10.7592 0.000803706C11.8791 0.0202415 12.9643 0.391708 13.8612 1.06253C14.758 1.73335 15.4209 2.66948 15.7559 3.73819C16.0909 4.8069 16.0809 5.95394 15.7274 7.01664C15.3739 8.07941 14.6948 9.00386 13.7865 9.65898C12.8781 10.3142 11.7866 10.6667 10.6666 10.6667H9.33192V12C9.33192 12.1768 9.2617 12.3464 9.13666 12.4714C9.01169 12.5964 8.84209 12.6667 8.66526 12.6667H7.33198H7.33328ZM12 5.33334C12.3536 5.33334 12.6927 5.19286 12.9427 4.94281C13.1928 4.69276 13.3332 4.35363 13.3332 4C13.3332 3.64638 13.1928 3.30724 12.9427 3.0572C12.6927 2.80714 12.3536 2.66667 12 2.66667C11.6463 2.66667 11.3072 2.80714 11.0571 3.0572C10.8071 3.30724 10.6666 3.64638 10.6666 4C10.6666 4.35363 10.8071 4.69276 11.0571 4.94281C11.3072 5.19286 11.6463 5.33334 12 5.33334Z" fill="black"/>
</svg>
